<svg width="360.000000" height="160.000000" viewBox="0 0 360 160" fill="none" xmlns="http://www.w3.org/2000/svg" xmlns:xlink="http://www.w3.org/1999/xlink">
	<desc>
			Created with Pixso.
	</desc>
	<defs/>
	<path id="bg" d="M0 160L9 151L18 160L27 151L36 160L45 151L54 160L63 151L72 160L81 151L90 160L99 151L108 160L117 151L126 160L135 151L144 160L153 151L162 160L171 151L180 160L189 151L198 160L207 151L216 160L225 151L234 160L243 151L252 160L261 151L270 160L279 151L288 160L297 151L306 160L315 151L324 160L333 151L342 160L351 151L360 160L360 0L0 0L0 160Z" fill="#FFFFFF" fill-opacity="1.000000" fill-rule="evenodd"/>
</svg>
